<?xml version="1.0" encoding="iso-8859-1"?>
<!-- Generator: Adobe Illustrator 19.0.0, SVG Export Plug-In . SVG Version: 6.00 Build 0)  -->
<svg version="1.1" id="Layer_1" xmlns="http://www.w3.org/2000/svg" xmlns:xlink="http://www.w3.org/1999/xlink" x="0px" y="0px"
	 viewBox="0 0 512 512" style="enable-background:new 0 0 512 512;" xml:space="preserve">
<g>
	<g>
		<path d="M256,0C114.844,0,0,114.844,0,256s114.844,256,256,256s256-114.844,256-256S397.156,0,256,0z M256,490.667
			C126.604,490.667,21.333,385.396,21.333,256C21.333,126.604,126.604,21.333,256,21.333S490.667,126.604,490.667,256
			C490.667,385.396,385.396,490.667,256,490.667z"/>
	</g>
</g>
<g>
	<g>
		<path d="M329.333,171.052H180c-5.891,0-10.667,4.776-10.667,10.667v149.333c0,5.891,4.776,10.667,10.667,10.667h149.333
			c5.891,0,10.667-4.776,10.667-10.667V181.719C340,175.828,335.224,171.052,329.333,171.052z M318.667,320.385h-128v-128h128
			V320.385z"/>
	</g>
</g>
<g>
</g>
<g>
</g>
<g>
</g>
<g>
</g>
<g>
</g>
<g>
</g>
<g>
</g>
<g>
</g>
<g>
</g>
<g>
</g>
<g>
</g>
<g>
</g>
<g>
</g>
<g>
</g>
<g>
</g>
</svg>
