<?xml version="1.0" encoding="iso-8859-1"?>
<!-- Generator: Adobe Illustrator 19.0.0, SVG Export Plug-In . SVG Version: 6.00 Build 0)  -->
<svg version="1.1" id="Layer_1" xmlns="http://www.w3.org/2000/svg" xmlns:xlink="http://www.w3.org/1999/xlink" x="0px" y="0px"
	 viewBox="0 0 512 512" style="enable-background:new 0 0 512 512;" xml:space="preserve">
<g>
	<g>
		<path d="M119.196,164.087H10.836C4.852,164.087,0,168.939,0,174.923v184.212c0,5.984,4.852,10.836,10.836,10.836h108.36
			c5.984,0,10.836-4.852,10.836-10.836V174.923C130.032,168.939,125.18,164.087,119.196,164.087z M108.36,348.299H21.672v-162.54
			h86.688V348.299z"/>
	</g>
</g>
<g>
	<g>
		<path d="M308.683,56.363c-3.81-1.773-7.968-1.201-11.196,1.492l-130.54,108.36c-2.471,2.058-4.408,5.106-4.408,8.323v184.212
			c0,3.217,2.106,6.265,4.577,8.323l130.37,108.36c1.984,1.656,4.619,2.513,7.106,2.513c1.561,0,2.54-0.339,4.005-1.021
			c3.804-1.783,5.646-5.608,5.646-9.815V66.177C314.243,61.971,312.487,58.146,308.683,56.363z M292.571,443.971l-108.36-90.296
			V179.611l108.36-90.296V443.971z"/>
	</g>
</g>
<g>
	<g>
		<polygon points="444.275,99.071 444.275,34.056 422.603,34.056 422.603,99.071 357.587,99.071 357.587,120.743 422.603,120.743 
			422.603,185.759 444.275,185.759 444.275,120.743 512,120.743 512,99.071 		"/>
	</g>
</g>
<g>
</g>
<g>
</g>
<g>
</g>
<g>
</g>
<g>
</g>
<g>
</g>
<g>
</g>
<g>
</g>
<g>
</g>
<g>
</g>
<g>
</g>
<g>
</g>
<g>
</g>
<g>
</g>
<g>
</g>
</svg>
