<?xml version="1.0" encoding="iso-8859-1"?>
<!-- Generator: Adobe Illustrator 19.0.0, SVG Export Plug-In . SVG Version: 6.00 Build 0)  -->
<svg version="1.1" id="Layer_1" xmlns="http://www.w3.org/2000/svg" xmlns:xlink="http://www.w3.org/1999/xlink" x="0px" y="0px"
	 viewBox="0 0 512 512" style="enable-background:new 0 0 512 512;" xml:space="preserve">
<g>
	<g>
		<path d="M117.333,155.045H10.667C4.776,155.045,0,159.821,0,165.712v181.333c0,5.891,4.776,10.667,10.667,10.667h106.667
			c5.891,0,10.667-4.776,10.667-10.667V165.712C128,159.821,123.224,155.045,117.333,155.045z M106.667,336.378H21.333v-160h85.333
			V336.378z"/>
	</g>
</g>
<g>
	<g>
		<path d="M303.859,49.004c-3.761-1.745-7.844-1.182-11.021,1.469l-128.5,106.667c-2.433,2.026-4.339,5.026-4.339,8.193v181.333
			c0,3.167,2.073,6.167,4.505,8.193l128.333,106.667c1.953,1.63,4.547,2.474,6.995,2.474c1.537,0,2.5-0.333,3.943-1.005
			c3.745-1.755,5.557-5.521,5.557-9.662V58.665C309.333,54.524,307.604,50.759,303.859,49.004z M288,430.556L181.333,341.67V170.326
			L288,81.441V430.556z"/>
	</g>
</g>
<g>
	<g>
		<rect x="362.667" y="101.708" width="149.333" height="21.333"/>
	</g>
</g>
<g>
</g>
<g>
</g>
<g>
</g>
<g>
</g>
<g>
</g>
<g>
</g>
<g>
</g>
<g>
</g>
<g>
</g>
<g>
</g>
<g>
</g>
<g>
</g>
<g>
</g>
<g>
</g>
<g>
</g>
</svg>
