<?xml version="1.0" encoding="iso-8859-1"?>
<!-- Generator: Adobe Illustrator 19.0.0, SVG Export Plug-In . SVG Version: 6.00 Build 0)  -->
<svg version="1.1" id="Layer_1" xmlns="http://www.w3.org/2000/svg" xmlns:xlink="http://www.w3.org/1999/xlink" x="0px" y="0px"
	 viewBox="0 0 512 512" style="enable-background:new 0 0 512 512;" xml:space="preserve">
<g>
	<g>
		<path d="M133.585,142.352H13.509C6.872,142.352,0,147.3,0,153.932v204.129c0,6.631,6.872,12.436,13.509,12.436h120.076
			c6.637,0,10.507-5.805,10.507-12.436V153.932C144.091,147.3,140.221,142.352,133.585,142.352z M120.076,346.481H24.015V166.367
			h96.061V346.481z"/>
	</g>
</g>
<g>
	<g>
		<path d="M342.052,22.98c-4.174-1.952-8.806-1.337-12.406,1.653L184.992,144.709c-2.732,2.281-4.878,5.658-4.878,9.222v204.129
			c0,3.565,2.333,6.942,5.066,9.223L329.646,487.36c2.205,1.835,5.124,2.785,7.88,2.785c1.724,0,2.814-0.375,4.433-1.131
			c4.221-1.976,6.262-6.215,6.262-10.876V33.856C348.221,29.194,346.274,24.955,342.052,22.98z M324.205,452.498L204.129,352.438
			V159.554l120.076-100.06V452.498z"/>
	</g>
</g>
<g>
	<g>
		<path d="M465.852,265.09l42.631-42.631c4.69-4.69,4.69-12.289,0-16.979c-4.69-4.69-12.289-4.69-16.979,0l-42.631,42.631
			l-42.631-42.631c-4.69-4.69-12.289-4.69-16.979,0c-4.69,4.69-4.69,12.289,0,16.979l42.63,42.631l-42.63,42.631
			c-4.69,4.69-4.69,12.289,0,16.979c2.345,2.345,5.418,3.518,8.49,3.518c3.072,0,6.145-1.173,8.49-3.518l42.631-42.63l42.631,42.63
			c2.345,2.345,5.418,3.518,8.49,3.518c3.072,0,6.145-1.173,8.49-3.518c4.69-4.69,4.69-12.289,0-16.979L465.852,265.09z"/>
	</g>
</g>
<g>
</g>
<g>
</g>
<g>
</g>
<g>
</g>
<g>
</g>
<g>
</g>
<g>
</g>
<g>
</g>
<g>
</g>
<g>
</g>
<g>
</g>
<g>
</g>
<g>
</g>
<g>
</g>
<g>
</g>
</svg>
